<svg width="250" height="45" viewBox="0 0 250 45" fill="none" xmlns="http://www.w3.org/2000/svg">
<path d="M124.397 31.1941C123.959 31.804 123.255 32.1558 122.383 32.1558C121.511 32.1558 120.894 31.804 120.457 31.1941C119.991 30.5281 119.747 29.7333 119.758 28.9216C119.745 28.0557 119.988 27.2051 120.457 26.4762C120.894 25.7803 121.593 25.5146 122.47 25.5146C122.845 25.5088 123.216 25.5932 123.551 25.7606C123.887 25.9279 124.177 26.1734 124.397 26.4762C124.836 27.086 125.096 27.8739 125.096 28.9216C125.096 29.8824 124.829 30.5851 124.397 31.1941ZM125.096 22.3673C123.693 21.5785 122.031 21.1416 120.19 21.1416C117.912 21.1416 115.985 21.8397 114.411 23.236C112.835 24.6346 111.958 26.4702 111.958 28.8227C111.958 31.0963 112.747 32.8453 114.324 34.0696C115.814 35.3813 117.741 35.9911 119.931 35.9911C121.859 35.9911 123.607 35.6402 125.106 34.8583C125.106 35.8191 125.02 36.515 124.753 36.9528C124.581 37.4758 124.055 37.9136 123.265 38.2645C122.474 38.6155 121.517 38.8744 120.115 38.8744C118.1 38.8744 116.525 38.6163 115.296 38.0916L113.196 41.8496C113.972 42.1145 115.203 42.3795 116.865 42.6384C117.829 42.8104 118.706 42.8964 119.491 42.9893C120.276 43.0822 121.066 43.0753 122.029 43.0753C124.223 43.0753 125.884 42.9033 127.199 42.5515C128.515 42.1997 129.565 41.6759 130.443 40.974C131.28 40.3165 131.918 39.4401 132.284 38.4426C132.636 37.4809 132.811 36.0823 132.809 34.2468V26.0392H134.643V21.4065H125.096V22.3673ZM109.411 31.5399V21.4065H100.133V26.1244H101.708V31.6293H100.133V36.3481H110.733V31.5399H109.411V31.5399ZM246.936 21.3196C246.238 21.4916 245.534 21.9295 244.836 22.6322C244.134 23.32 243.596 24.1555 243.26 25.0776V21.4065H233.976V26.1244H235.992V31.6293H233.978V36.3481H245.98V31.5399H243.788C243.788 30.6651 243.96 29.8824 244.227 29.3525C244.493 28.8227 245.011 28.3917 245.888 28.0408C246.679 27.6899 247.816 27.603 249.391 27.603H250.003V21.0616C248.686 21.0616 247.636 21.1476 246.939 21.3196M102.233 19.1391C103.024 19.577 104.074 19.8359 105.297 19.8359C106.52 19.8359 107.49 19.5778 108.274 19.1391C109.058 18.7005 109.411 18.0055 109.411 17.2176C109.411 16.4297 109.059 15.819 108.274 15.2951C107.489 14.7713 106.52 14.5072 105.297 14.5072C104.074 14.5072 103.104 14.7653 102.233 15.2031C101.442 15.7261 101.01 16.3428 101.01 17.1255C101.01 18.0003 101.441 18.7022 102.233 19.1391ZM88.8352 28.8227H91.0278C90.9346 30.8432 89.9712 31.804 88.0442 31.804C86.728 31.804 85.7642 31.3667 85.153 30.4922C84.4552 29.6175 84.1895 28.0468 84.1895 25.6874C84.1895 23.3281 84.5414 21.7574 85.153 20.7966C85.7645 19.9219 86.8211 19.4841 88.1305 19.4841C89.0256 19.4742 89.9055 19.7153 90.6698 20.1799C91.3676 20.6177 91.9852 21.3136 92.4234 22.2752H97.5874V14.9442H92.4182V16.4288C90.9286 15.1171 88.8283 14.5072 86.1967 14.5072C83.0466 14.5072 80.3314 15.554 78.2285 17.5625C76.035 19.5709 74.8982 22.2813 74.8982 25.5954C74.8982 27.7819 75.4235 29.7903 76.5672 31.5304C77.6161 33.3651 79.1919 34.5857 81.1189 35.3736C83.0458 36.1615 85.3255 36.6001 87.6914 36.6001C89.3536 36.6001 90.8423 36.3421 92.2448 35.8114C93.6473 35.2807 94.8696 34.4988 95.8339 33.3651C96.8836 32.2323 97.502 31.0926 97.8471 30.0458C98.199 28.9121 98.3741 27.1632 98.3723 24.7989H88.8352V28.8227ZM202.267 27.6107H197.887V27.3527C197.887 26.4788 198.059 25.7829 198.412 25.1662C198.765 24.5495 199.289 24.2914 199.988 24.2914C200.687 24.2914 201.217 24.5563 201.655 25.0802C202.093 25.604 202.267 26.2999 202.267 27.0886V27.6107ZM206.727 23.1638C204.979 21.7652 202.613 20.9773 199.808 20.9773C196.832 20.9773 194.552 21.7652 192.804 23.2498C191.055 24.7344 190.178 26.6568 190.178 28.9268C190.178 31.2861 191.056 33.1217 192.804 34.6037C194.551 36.0858 197.183 36.7911 200.687 36.7911C202.786 36.7911 204.54 36.3533 206.029 35.5654C206.727 35.2136 207.432 34.6906 207.87 34.1668C208.395 33.6429 208.746 33.0331 209.1 32.4164L202.706 31.6285C202.353 32.6796 201.564 33.2017 200.514 33.2017C198.766 33.2017 197.795 31.982 197.795 29.6226H209.533C209.447 26.7394 208.482 24.5598 206.728 23.1612M168.892 32.6796C168.492 32.687 168.096 32.6044 167.732 32.4379C167.368 32.2714 167.047 32.0253 166.792 31.7179C166.267 31.0221 166.001 30.1473 166.001 29.0076C166.001 27.9608 166.267 27 166.792 26.2973C167.317 25.5945 168.015 25.2505 168.985 25.2505C170.387 25.2505 171.351 26.1253 171.963 27.7819H176.695V21.4065H171.963V22.3638C170.826 21.4891 169.158 21.0521 167.058 21.0521C164.519 21.0521 162.412 21.748 160.751 23.2386C159.089 24.7292 158.211 26.5588 158.211 28.8296C158.211 31.1889 159.089 33.1114 160.929 34.5065C162.77 35.9017 165.223 36.601 168.373 36.601C170.739 36.601 172.753 36.1632 174.325 35.2024C175.896 34.2416 176.95 33.0159 177.475 31.3584L171.696 30.0467C171.171 31.8882 170.295 32.677 168.892 32.677M222.419 32.3329C221.887 32.935 221.102 33.2008 220.139 33.2008C219.862 33.2045 219.588 33.1524 219.332 33.0476C219.076 32.9428 218.844 32.7875 218.65 32.591C218.212 32.24 218.039 31.7162 218.039 31.1064C218.039 30.4965 218.212 30.0596 218.65 29.6226C219.097 29.2693 219.655 29.0839 220.225 29.0988C220.988 29.0955 221.74 29.2752 222.419 29.6226V32.3329ZM229.941 27.1807C229.941 25.7829 229.769 24.8213 229.503 24.2114C229.198 23.5157 228.714 22.9124 228.101 22.4619C227.489 21.9389 226.44 21.5011 225.037 21.2422C224.292 21.0593 223.526 20.9703 222.758 20.9773C221.881 20.8913 221.004 20.8913 219.953 20.8913C217.063 20.8913 214.962 21.1493 213.474 21.766C211.986 22.3828 210.934 23.4235 210.231 24.8213L216.268 25.4311C217.332 24.5572 218.295 24.1194 219.518 24.1194C220.216 24.1194 220.834 24.2914 221.273 24.5572C221.697 24.7553 222.038 25.0953 222.236 25.518C222.409 25.8689 222.409 26.5648 222.409 27.4396V27.8774C221.272 27.3535 219.691 27.0946 217.763 27.0946C215.663 27.0946 213.908 27.5316 212.593 28.4064C211.278 29.2811 210.579 30.4148 210.579 31.8134C210.579 33.0391 211.103 34.1728 212.155 35.0476C213.205 36.0083 214.78 36.4453 216.886 36.4453C219.166 36.4453 220.913 36.0083 222.229 35.1336V36.1778H231.869V31.4599H229.941V27.1807ZM188.079 14.9442H178.708V19.663H180.283V31.6319H178.708V36.3507H189.394V31.5459H189.48V31.5399H188.078L188.079 14.9442ZM147.346 32.3347C146.821 32.9368 146.031 33.2026 145.066 33.2026C144.79 33.2062 144.515 33.1541 144.259 33.0493C144.004 32.9445 143.772 32.7892 143.577 32.5927C143.139 32.2418 142.966 31.7179 142.966 31.1081C142.966 30.4982 143.138 30.0613 143.577 29.6243C144.025 29.2709 144.583 29.0855 145.153 29.1005C145.916 29.0972 146.668 29.2768 147.346 29.6243V32.3347ZM154.876 27.1781C154.876 25.7803 154.703 24.8187 154.437 24.2088C154.136 23.5107 153.652 22.9063 153.035 22.4593C152.337 21.9363 151.374 21.4985 149.971 21.2396C149.225 21.0562 148.46 20.9672 147.692 20.9747C146.815 20.8887 145.937 20.8887 144.887 20.8887C141.996 20.8887 139.896 21.1467 138.407 21.7634C136.919 22.3802 135.868 23.421 135.164 24.8187L141.202 25.4285C142.259 24.5546 143.222 24.1168 144.451 24.1168C145.15 24.1168 145.767 24.2888 146.206 24.5546C146.628 24.7546 146.969 25.094 147.169 25.5154C147.342 25.8664 147.342 26.5622 147.342 27.437V27.8748C146.205 27.351 144.624 27.0921 142.696 27.0921C140.596 27.0921 138.841 27.529 137.526 28.4038C136.21 29.2786 135.512 30.4122 135.512 31.8108C135.512 33.0365 136.037 34.1702 137.088 35.045C138.137 36.0058 139.712 36.4427 141.82 36.4427C144.098 36.4427 145.847 36.0058 147.162 35.131V36.1778H156.799V31.4599H154.872L154.876 27.1781ZM68.5481 10.0371C68.1263 8.7563 66.9472 7.74821 65.5534 7.05321C64.1362 6.37799 62.5396 5.94706 60.9068 5.69246C59.2696 5.4511 57.6169 5.32835 55.9619 5.32517V15.493H45.6605C44.7859 13.5757 43.5542 12.1883 42.162 11.3161C40.7699 10.4439 39.0198 9.92782 37.0989 9.92782C34.4862 9.92782 32.3799 11.4486 31.1594 13.1964C29.9398 15.1093 29.2402 17.5943 29.2402 22.2993C29.2402 27.0043 29.7698 30.1378 31.162 31.8831C31.8673 32.9018 32.8839 33.6661 34.0601 34.0618C35.7723 33.5174 37.4741 32.9359 39.1664 32.3295C40.2618 31.9281 41.3527 31.5141 42.4389 31.0874C42.7033 30.2686 42.8506 29.4167 42.8762 28.5569H38.5022V20.5429H57.5257C57.5257 21.7015 57.5041 22.7793 57.4618 23.7925C58.8169 22.9599 60.1357 22.0722 61.4019 21.1261C62.7182 20.1352 63.9835 19.0815 65.1187 17.9229C65.4016 17.6339 65.669 17.3328 65.9415 17.0352C66.1917 16.7264 66.4685 16.428 66.6988 16.108L67.0559 15.6323C67.1698 15.4715 67.2724 15.3072 67.3811 15.1438C67.5952 14.8216 67.7913 14.4879 67.9685 14.1443C68.643 12.7827 68.9768 11.3152 68.5516 10.0371M17.0861 37.8319C15.8821 36.6996 14.8537 35.3951 14.0344 33.9612C11.7556 30.4845 10.7085 26.4779 10.7085 22.1178C10.7085 21.7193 10.7168 21.3256 10.7335 20.9368C8.78327 22.4283 6.9426 24.0497 5.34775 25.8612C4.26094 27.1024 3.31559 28.4563 2.66524 29.8807C2.04248 31.3059 1.78975 32.8344 2.29175 34.0859C2.79375 35.3374 3.99269 36.2475 5.3857 36.8582C5.74239 37.0096 6.10723 37.1411 6.47855 37.2521C6.66831 37.3063 6.85289 37.3674 7.04351 37.4173L7.62314 37.5532C8.00611 37.6504 8.41065 37.7011 8.80052 37.7777C9.2016 37.831 9.6001 37.8895 10.0081 37.9308C11.6414 38.0766 13.2834 38.1002 14.9203 38.0013C15.6439 37.9626 16.3676 37.9033 17.0913 37.8293M70.8701 12.3431C70.7503 13.3057 70.4888 14.2453 70.0938 15.1317C69.3175 16.846 68.2825 18.359 67.1154 19.7223C64.7866 22.4576 62.0834 24.7507 59.2499 26.8289C53.5571 30.9533 47.2536 34.1255 40.6957 36.5193C34.1291 38.8881 27.2573 40.4983 20.2361 40.992C16.7264 41.2165 13.1745 41.1942 9.62684 40.5895C7.85689 40.291 6.08436 39.799 4.38601 38.9819C3.51231 38.556 2.7066 38.0035 1.99504 37.3424C1.24244 36.6405 0.671041 35.7676 0.329465 34.7981C0.0064287 33.8315 -0.0770295 32.8012 0.086227 31.7953C0.239624 30.855 0.532656 29.9427 0.955672 29.0885C1.78717 27.4387 2.8895 26.016 4.09706 24.737C6.15078 22.5677 8.46585 20.7321 10.8836 19.0755C11.4873 13.8346 13.6661 9.46592 17.3526 6.09414C21.5377 2.08844 26.9588 0 33.2416 0C38.4902 0 42.6796 1.21625 45.6484 3.83368V0.87305H55.961V3.81561C57.6891 3.76758 59.4184 3.84001 61.1363 4.03237C62.8855 4.23881 64.6468 4.62243 66.3486 5.35184C67.2249 5.73463 68.0389 6.24575 68.7638 6.86828C69.537 7.53466 70.1368 8.37783 70.5121 9.32572C70.873 10.2882 70.9964 11.3231 70.8718 12.3431M41.6186 39.0309C46.8146 37.1334 51.6431 34.836 56.043 32.1609C55.3089 33.9173 54.5292 35.5886 52.817 37.4362C50.8953 39.6967 48.1006 41.4531 45.3043 42.4982C42.5079 43.5432 39.5382 44.0705 36.2269 44.0705C33.0903 44.0779 29.9658 43.6831 26.9303 42.8956C31.7606 42.1059 36.6771 40.8131 41.6186 39.0309Z" fill="white"/>
</svg>
